<svg id="SPRINT_PALNNING" xmlns="http://www.w3.org/2000/svg" viewBox="0 0 1134.98 1243.33"><defs><style>.cls-1{fill:#fff;}.cls-2{fill:#262424;}.cls-3{fill:#dc9044;}.cls-4{fill:#86bec0;}</style></defs><title>Sprint Planning</title><rect class="cls-1" x="117.98" y="6.71" width="649.47" height="649.47" rx="41.25" ry="41.25"/><path class="cls-2" d="M952.35,756.6h-567a44,44,0,0,1-43.94-43.94v-567a44,44,0,0,1,43.94-43.94h567a44,44,0,0,1,43.94,43.94v567A44,44,0,0,1,952.35,756.6Zm-567-649.47a38.6,38.6,0,0,0-38.55,38.55v567a38.6,38.6,0,0,0,38.55,38.55h567a38.6,38.6,0,0,0,38.55-38.55v-567a38.6,38.6,0,0,0-38.55-38.55h-567Z" transform="translate(-226.15 -97.73)"/><rect class="cls-1" x="184.37" y="365.3" width="538.33" height="204" rx="20.33" ry="20.33"/><path class="cls-2" d="M928.52,669.72H430.85a23.05,23.05,0,0,1-23-23V483.36a23.05,23.05,0,0,1,23-23H928.52a23.05,23.05,0,0,1,23,23V646.7A23.05,23.05,0,0,1,928.52,669.72Zm-497.67-204a17.66,17.66,0,0,0-17.64,17.64V646.7a17.66,17.66,0,0,0,17.64,17.64H928.52a17.66,17.66,0,0,0,17.64-17.64V483.36a17.66,17.66,0,0,0-17.64-17.64H430.85Z" transform="translate(-226.15 -97.73)"/><line class="cls-1" x1="314.04" y1="373.97" x2="314.04" y2="560.63"/><path class="cls-2" d="M540.18,661.06a2.69,2.69,0,0,1-2.69-2.69V471.7a2.69,2.69,0,0,1,5.39,0V658.36A2.69,2.69,0,0,1,540.18,661.06Z" transform="translate(-226.15 -97.73)"/><line class="cls-1" x1="453.54" y1="373.97" x2="453.54" y2="560.63"/><path class="cls-2" d="M679.68,661.06a2.69,2.69,0,0,1-2.69-2.69V471.7a2.69,2.69,0,0,1,5.39,0V658.36A2.69,2.69,0,0,1,679.68,661.06Z" transform="translate(-226.15 -97.73)"/><line class="cls-1" x1="593.04" y1="373.97" x2="593.04" y2="560.63"/><path class="cls-2" d="M819.18,661.06a2.69,2.69,0,0,1-2.69-2.69V471.7a2.69,2.69,0,0,1,5.39,0V658.36A2.69,2.69,0,0,1,819.18,661.06Z" transform="translate(-226.15 -97.73)"/><line class="cls-1" x1="711.29" y1="467.3" x2="195.79" y2="467.3"/><path class="cls-2" d="M937.43,567.72H421.93a2.69,2.69,0,0,1,0-5.39h515.5A2.69,2.69,0,1,1,937.43,567.72Z" transform="translate(-226.15 -97.73)"/><polygon class="cls-3" points="307.79 325 195.79 259 195.79 140.58 307.79 206.58 307.79 325"/><path class="cls-3" d="M533.93,425.42a2.69,2.69,0,0,1-1.37-.37l-112-66a2.69,2.69,0,0,1-1.33-2.32V238.31A2.69,2.69,0,0,1,423.3,236l112,66a2.69,2.69,0,0,1,1.33,2.32V422.73A2.69,2.69,0,0,1,533.93,425.42ZM424.63,355.19L531.24,418V305.85L424.63,243V355.19Z" transform="translate(-226.15 -97.73)"/><polygon class="cls-4" points="307.79 325 419.79 259 419.79 140.58 307.79 206.58 307.79 325"/><path class="cls-4" d="M533.93,425.42a2.69,2.69,0,0,1-2.69-2.69V304.31a2.69,2.69,0,0,1,1.33-2.32l112-66a2.69,2.69,0,0,1,4.06,2.32V356.73a2.69,2.69,0,0,1-1.33,2.32l-112,66A2.69,2.69,0,0,1,533.93,425.42Zm2.69-119.58V418l106.61-62.83V243Z" transform="translate(-226.15 -97.73)"/><polygon class="cls-1" points="419.79 140.58 376.01 166.38 351.57 180.78 307.79 206.58 195.79 140.58 239.57 114.78 264.01 100.38 307.79 74.58 419.79 140.58"/><path class="cls-2" d="M533.93,307a2.69,2.69,0,0,1-1.37-.37l-112-66a2.69,2.69,0,0,1,0-4.64l112-66a2.69,2.69,0,0,1,2.74,0l112,66a2.69,2.69,0,0,1,0,4.64l-112,66A2.69,2.69,0,0,1,533.93,307ZM427.24,238.31l106.69,62.87,106.69-62.87L533.93,175.44Z" transform="translate(-226.15 -97.73)"/><polygon class="cls-1" points="376.01 166.38 351.57 180.78 239.57 114.78 264.01 100.38 376.01 166.38"/><path class="cls-2" d="M577.71,281.2a2.69,2.69,0,0,1-1.37-.37l-112-66a2.69,2.69,0,0,1,0-4.64l24.44-14.4a2.69,2.69,0,0,1,2.74,0l112,66a2.69,2.69,0,0,1,0,4.64l-24.44,14.4A2.69,2.69,0,0,1,577.71,281.2ZM471,212.51l106.69,62.87,19.13-11.27L490.15,201.23Z" transform="translate(-226.15 -97.73)"/><polygon class="cls-1" points="351.57 204.95 351.57 180.78 376.01 166.38 376.01 190.55 351.57 204.95"/><path class="cls-2" d="M577.71,305.38a2.69,2.69,0,0,1-2.69-2.69V278.51a2.69,2.69,0,0,1,1.33-2.32l24.44-14.4a2.69,2.69,0,0,1,4.06,2.32v24.18a2.69,2.69,0,0,1-1.33,2.32L579.08,305A2.69,2.69,0,0,1,577.71,305.38ZM580.41,280V298l19.05-11.23V268.82Z" transform="translate(-226.15 -97.73)"/><path class="cls-3" d="M969.18,370.34l-50.72-38.2v12.32H807.15a52.2,52.2,0,1,1,29.34-9.06h65.24q0.6-1.3,1.16-2.63a104,104,0,1,0-95.74,63.46h111.3v12.32Z" transform="translate(-226.15 -97.73)"/><path class="cls-3" d="M706.91,344.46H669.19v51.77h93.59A113.3,113.3,0,0,1,706.91,344.46Z" transform="translate(-226.15 -97.73)"/><path class="cls-1" d="M1150.56,1338.35a11.86,11.86,0,0,1-7.57-2.72,12,12,0,0,1-4.15-6.94l-84.72-411.48H532.58l-84.72,411.48a12,12,0,0,1-4.15,6.94,11.86,11.86,0,0,1-7.57,2.72,12,12,0,0,1-11.79-14l73-438.73h592.1l72.95,438.73A12,12,0,0,1,1150.56,1338.35Z" transform="translate(-226.15 -97.73)"/><path class="cls-2" d="M1150.56,1341.05a14.69,14.69,0,0,1-14.37-11.83l-84.27-409.31H534.78l-84.28,409.32a14.69,14.69,0,0,1-14.37,11.82A14.59,14.59,0,0,1,425,1335.9a14.8,14.8,0,0,1-3.33-12l73-438.75a2.7,2.7,0,0,1,2.67-2.26h592.1a2.71,2.71,0,0,1,2.67,2.26l73,438.73a14.81,14.81,0,0,1-3.33,12A14.59,14.59,0,0,1,1150.56,1341.05Zm-618-426.55h521.54a2.7,2.7,0,0,1,2.65,2.16l84.72,411.48a9.37,9.37,0,0,0,3.21,5.39,9.18,9.18,0,0,0,12.86-1.14,9.39,9.39,0,0,0,2.11-7.61L1087.1,888.32H499.59L427,1324.8a9.39,9.39,0,0,0,2.11,7.6,9.19,9.19,0,0,0,7,3.25,9.1,9.1,0,0,0,5.85-2.1,9.37,9.37,0,0,0,3.22-5.39l84.72-411.49A2.71,2.71,0,0,1,532.58,914.5Z" transform="translate(-226.15 -97.73)"/><path class="cls-1" d="M1003.31,1338.35a11.86,11.86,0,0,1-7.57-2.72,12,12,0,0,1-4.15-6.94L906.87,917.21H385.33l-84.72,411.48a12,12,0,0,1-4.15,6.94,11.86,11.86,0,0,1-7.57,2.72,12,12,0,0,1-11.79-14l73-438.73h592.1l72.95,438.73A12,12,0,0,1,1003.31,1338.35Z" transform="translate(-226.15 -97.73)"/><path class="cls-2" d="M1003.31,1341.05a14.69,14.69,0,0,1-14.37-11.83L904.67,919.91H387.54l-84.28,409.32a14.79,14.79,0,0,1-5.09,8.48,14.59,14.59,0,0,1-20.41-1.82,14.8,14.8,0,0,1-3.33-12l73-438.75a2.7,2.7,0,0,1,2.67-2.26h592.1a2.71,2.71,0,0,1,2.67,2.26l73,438.73a14.81,14.81,0,0,1-3.33,12A14.59,14.59,0,0,1,1003.31,1341.05Zm-618-426.55H906.88a2.7,2.7,0,0,1,2.65,2.16l84.72,411.48a9.37,9.37,0,0,0,3.21,5.39,9.18,9.18,0,0,0,12.86-1.14,9.39,9.39,0,0,0,2.11-7.61L939.86,888.32H352.35L279.77,1324.8a9.39,9.39,0,0,0,2.11,7.6,9.19,9.19,0,0,0,7,3.25,9.09,9.09,0,0,0,5.85-2.1,9.37,9.37,0,0,0,3.22-5.39l84.72-411.49A2.71,2.71,0,0,1,385.33,914.5Z" transform="translate(-226.15 -97.73)"/><rect class="cls-4" x="74.47" y="754.22" width="840.39" height="37.5"/><path class="cls-2" d="M926,888.31a2.69,2.69,0,0,1-2.69-2.69v-27.5a2.69,2.69,0,1,1,5.39,0v27.5A2.69,2.69,0,0,1,926,888.31Z" transform="translate(-226.15 -97.73)"/><path class="cls-1" d="M919.12,845.7H769.69a6.51,6.51,0,0,1-6.26-8.32l46-159.08A12.06,12.06,0,0,1,821,669.59H970.43a6.51,6.51,0,0,1,6.26,8.32L930.7,837A12.06,12.06,0,0,1,919.12,845.7Z" transform="translate(-226.15 -97.73)"/><path class="cls-2" d="M919.12,848.4H769.69a9.21,9.21,0,0,1-8.85-11.77l46-159.08A14.82,14.82,0,0,1,821,666.9H970.43a9.21,9.21,0,0,1,8.85,11.77l-46,159.08A14.82,14.82,0,0,1,919.12,848.4ZM821,672.29a9.41,9.41,0,0,0-9,6.76L766,838.13a3.82,3.82,0,0,0,3.67,4.88H919.12a9.41,9.41,0,0,0,9-6.76l46-159.08a3.82,3.82,0,0,0-3.67-4.88H821Z" transform="translate(-226.15 -97.73)"/><path class="cls-1" d="M915.82,833.7H780.55a3.51,3.51,0,0,1-3.37-4.49l41.44-143.35a5.91,5.91,0,0,1,5.68-4.27H959.57a3.51,3.51,0,0,1,3.37,4.49L921.5,829.43A5.91,5.91,0,0,1,915.82,833.7Z" transform="translate(-226.15 -97.73)"/><path class="cls-2" d="M915.82,836.4H780.55a6.21,6.21,0,0,1-6-7.93L816,685.12a8.65,8.65,0,0,1,8.27-6.22H959.57a6.21,6.21,0,0,1,6,7.93L924.09,830.18A8.65,8.65,0,0,1,915.82,836.4ZM824.3,684.29a3.24,3.24,0,0,0-3.09,2.33L779.77,830a0.82,0.82,0,0,0,.79,1H915.82a3.24,3.24,0,0,0,3.09-2.32l41.44-143.35a0.82,0.82,0,0,0-.79-1H824.3Z" transform="translate(-226.15 -97.73)"/><polygon class="cls-1" points="559.2 1105.01 560.87 1148.76 532.62 1148.76 527.37 1105.01 559.2 1105.01"/><path class="cls-2" d="M787,1249.19H758.77a2.69,2.69,0,0,1-2.67-2.37l-5.25-43.75a2.69,2.69,0,0,1,2.67-3h31.82a2.69,2.69,0,0,1,2.69,2.59l1.68,43.75A2.69,2.69,0,0,1,787,1249.19Zm-25.86-5.39h23.06l-1.47-38.36h-26.2Z" transform="translate(-226.15 -97.73)"/><path class="cls-4" d="M789.52,1024.78v157.07h-55l-27.77-125.67L503,1026.51s-55-5.83-55-124.33h82.54l13,4,59.33,18.33,151.5,58.43,8.8,3.4A41.2,41.2,0,0,1,789.52,1024.78Z" transform="translate(-226.15 -97.73)"/><path class="cls-1" d="M473.87,945.21c0.57,6.06,1.94,18.14,4.92,33.55a3.92,3.92,0,0,0,2.86,3l23.93,6.25a3.93,3.93,0,0,0,2.77-.3l14.48-7.34a3.93,3.93,0,0,0,2.12-4l-3.77-32.06a3.93,3.93,0,0,0-3.9-3.47h-39.5A3.92,3.92,0,0,0,473.87,945.21Z" transform="translate(-226.15 -97.73)"/><path class="cls-2" d="M761,1171.87a2.69,2.69,0,0,1-2.66-2.28l-20-128.78-167-54.47a35.64,35.64,0,0,1-24-27.53l-6.48-35.65a2.69,2.69,0,1,1,5.3-1l6.48,35.65a30.25,30.25,0,0,0,20.4,23.38l168.52,55a2.7,2.7,0,0,1,1.83,2.15l20.28,130.42a2.69,2.69,0,0,1-2.25,3.08A2.76,2.76,0,0,1,761,1171.87Z" transform="translate(-226.15 -97.73)"/><path class="cls-2" d="M548.93,955.1a2.69,2.69,0,0,1-1.24-5.09l8.73-4.5a12.24,12.24,0,0,0,6.52-12.29l-2.77-23.14a2.69,2.69,0,1,1,5.35-.64l2.77,23.14a17.65,17.65,0,0,1-9.41,17.72l-8.73,4.5A2.68,2.68,0,0,1,548.93,955.1Z" transform="translate(-226.15 -97.73)"/><path class="cls-1" d="M789.52,1024.78v18.17c-0.83.05-1.66,0.08-2.5,0.08a38.93,38.93,0,0,1-32.67-60.09l8.8,3.4A41.2,41.2,0,0,1,789.52,1024.78Z" transform="translate(-226.15 -97.73)"/><path class="cls-3" d="M788.3,1215H735.8a5.84,5.84,0,0,1-5.81-5.24l-4.12-39.82a5.84,5.84,0,0,1,5.81-6.44h58.69a5.84,5.84,0,0,1,5.83,6.14l-2.06,39.82A5.84,5.84,0,0,1,788.3,1215Z" transform="translate(-226.15 -97.73)"/><path class="cls-4" d="M879.61,1338.35H742s-1-6.31-1.63-17.78a430.85,430.85,0,0,1,3.51-79.37h56s14,36.27,36.1,50.28c17.72,11.23,37.15,10.52,42.5,29.09C879.8,1325.16,880.25,1330.93,879.61,1338.35Z" transform="translate(-226.15 -97.73)"/><path class="cls-1" d="M879.61,1338.35H742s-1-6.31-1.63-17.78H878.47C879.8,1325.16,880.25,1330.93,879.61,1338.35Z" transform="translate(-226.15 -97.73)"/><path class="cls-2" d="M879.61,1341H742a2.69,2.69,0,0,1-2.66-2.28c0-.26-1-6.58-1.65-18a2.69,2.69,0,0,1,2.69-2.85H878.47a2.69,2.69,0,0,1,2.59,1.95c1.48,5.11,1.88,11.25,1.24,18.76A2.7,2.7,0,0,1,879.61,1341Zm-135.3-5.39H877.1a47,47,0,0,0-.73-12.39H743.19C743.57,1329.06,744,1333.27,744.31,1335.66Z" transform="translate(-226.15 -97.73)"/><polygon class="cls-1" points="635.03 1105.01 636.71 1148.76 608.46 1148.76 603.21 1105.01 635.03 1105.01"/><path class="cls-2" d="M862.85,1249.19H834.6a2.69,2.69,0,0,1-2.67-2.37l-5.25-43.75a2.69,2.69,0,0,1,2.67-3h31.83a2.7,2.7,0,0,1,2.69,2.59l1.67,43.75A2.69,2.69,0,0,1,862.85,1249.19ZM837,1243.8h23.06l-1.47-38.36h-26.2Z" transform="translate(-226.15 -97.73)"/><path class="cls-4" d="M865.35,1024.78v157.07h-55L782.6,1056.18l-203.75-29.67s-55-5.83-55-124.33h82.54l13,4,59.33,18.33,151.5,58.43,8.8,3.4A41.2,41.2,0,0,1,865.35,1024.78Z" transform="translate(-226.15 -97.73)"/><path class="cls-2" d="M786.67,1077.28a2.7,2.7,0,0,1-2.63-2.11l-3.67-16.59-201.87-29.4c-1.21-.14-15.26-2.15-29.21-18.66-18.67-22.09-28.14-58.54-28.14-108.34a2.69,2.69,0,1,1,5.39,0c0,114.75,52.06,121.6,52.59,121.65h0.1L783,1053.51a2.69,2.69,0,0,1,2.24,2.08L789.3,1074A2.69,2.69,0,0,1,786.67,1077.28Z" transform="translate(-226.15 -97.73)"/><path class="cls-1" d="M549.71,945.21c0.57,6.06,1.94,18.14,4.92,33.55a3.92,3.92,0,0,0,2.86,3l23.93,6.25a3.93,3.93,0,0,0,2.77-.3l14.48-7.34a3.93,3.93,0,0,0,2.12-4L597,944.39a3.93,3.93,0,0,0-3.9-3.47h-39.5A3.92,3.92,0,0,0,549.71,945.21Z" transform="translate(-226.15 -97.73)"/><path class="cls-2" d="M836.86,1171.87a2.69,2.69,0,0,1-2.66-2.28l-20-128.78-167-54.47a35.64,35.64,0,0,1-24-27.54l-6.48-35.65a2.69,2.69,0,1,1,5.3-1l6.48,35.65a30.25,30.25,0,0,0,20.4,23.38l168.52,55a2.7,2.7,0,0,1,1.83,2.15l20.28,130.42a2.69,2.69,0,0,1-2.25,3.08A2.76,2.76,0,0,1,836.86,1171.87Z" transform="translate(-226.15 -97.73)"/><path class="cls-2" d="M624.76,955.1a2.69,2.69,0,0,1-1.24-5.09l8.73-4.5a12.24,12.24,0,0,0,6.52-12.29L636,910.09a2.69,2.69,0,1,1,5.35-.64l2.77,23.14a17.65,17.65,0,0,1-9.41,17.72L626,954.8A2.68,2.68,0,0,1,624.76,955.1Z" transform="translate(-226.15 -97.73)"/><path class="cls-1" d="M865.35,1024.78v18.17c-0.83.05-1.66,0.08-2.5,0.08a38.93,38.93,0,0,1-32.67-60.09l8.8,3.4A41.2,41.2,0,0,1,865.35,1024.78Z" transform="translate(-226.15 -97.73)"/><path class="cls-3" d="M864.14,1215h-52.5a5.84,5.84,0,0,1-5.81-5.24l-4.12-39.82a5.84,5.84,0,0,1,5.81-6.44H866.2a5.84,5.84,0,0,1,5.83,6.14L870,1209.46A5.84,5.84,0,0,1,864.14,1215Z" transform="translate(-226.15 -97.73)"/><path class="cls-4" d="M955.45,1338.35H817.79s-1-6.31-1.63-17.78a430.85,430.85,0,0,1,3.51-79.37h56s14,36.27,36.1,50.28c17.72,11.23,37.15,10.52,42.5,29.09C955.63,1325.16,956.09,1330.93,955.45,1338.35Z" transform="translate(-226.15 -97.73)"/><path class="cls-1" d="M955.45,1338.35H817.79s-1-6.31-1.63-17.78H954.31C955.63,1325.16,956.09,1330.93,955.45,1338.35Z" transform="translate(-226.15 -97.73)"/><path class="cls-2" d="M955.45,1341H817.79a2.69,2.69,0,0,1-2.66-2.28c0-.26-1-6.58-1.66-18a2.69,2.69,0,0,1,2.69-2.85H954.31a2.69,2.69,0,0,1,2.59,1.95c1.48,5.11,1.88,11.25,1.24,18.76A2.7,2.7,0,0,1,955.45,1341Zm-135.3-5.39H952.94a47,47,0,0,0-.73-12.39H819C819.41,1329.06,819.86,1333.27,820.15,1335.66Z" transform="translate(-226.15 -97.73)"/><path class="cls-1" d="M585,565.21s5.39,14.82,27.48,22.63c24.6,8.7,36.64-26.13,36.91-56.84S572.07,502.17,585,565.21Z" transform="translate(-226.15 -97.73)"/><path class="cls-2" d="M619.93,591.91a25,25,0,0,1-8.35-1.52c-23-8.14-28.87-23.6-29.11-24.25a2.68,2.68,0,0,1-.11-0.38c-5.75-28,6.27-42.09,14-48,13.91-10.69,32.41-10.7,43.5-5.17,8,4,12.33,10.52,12.27,18.44-0.17,19.92-5.53,46.78-20,57A20.73,20.73,0,0,1,619.93,591.91ZM587.6,564.45c0.68,1.65,6.29,14,25.78,20.85,5.84,2.07,10.94,1.5,15.56-1.74,12-8.42,17.58-32.48,17.75-52.58,0.07-7.75-5.78-11.83-9.28-13.57-9.36-4.66-25.79-4.62-37.82,4.62C591.47,528.28,582.8,540.71,587.6,564.45Z" transform="translate(-226.15 -97.73)"/><polygon class="cls-1" points="361.46 471.7 353.92 504.75 389.48 507.44 391.45 472.78 361.46 471.7"/><path class="cls-2" d="M615.62,607.87h-0.2l-35.56-2.69a2.69,2.69,0,0,1-2.42-3.29l7.54-33a2.71,2.71,0,0,1,2.72-2.09l30,1.08a2.69,2.69,0,0,1,2.59,2.85l-2,34.66A2.69,2.69,0,0,1,615.62,607.87ZM583.39,600l29.7,2.25,1.66-29.18-25-.9Z" transform="translate(-226.15 -97.73)"/><path class="cls-2" d="M605.21,487.63s-18.32-10-37.72,8.35-0.81,62.77,17,78.93h33.4l21.82-39.33L650.06,546a40.67,40.67,0,0,0,7.41-41.89C648,479.28,612.75,484.93,605.21,487.63Z" transform="translate(-226.15 -97.73)"/><path class="cls-1" d="M639.57,535.95l0.12-.37s8.08-14,20.2-5.66-2.42,40.41-21.82,28.56h0A47.28,47.28,0,0,1,639.57,535.95Z" transform="translate(-226.15 -97.73)"/><path class="cls-2" d="M646.6,563.75a19,19,0,0,1-9.93-3,2.69,2.69,0,0,1-1.25-1.83A50.17,50.17,0,0,1,637,535.14l0.12-.37a2.69,2.69,0,0,1,.23-0.53c0.18-.31,4.49-7.66,11.88-9.33,4.06-.92,8.16,0,12.19,2.8,7.79,5.36,6.67,17.82,1.17,26.29C658.44,560.39,652.69,563.75,646.6,563.75Zm-6.07-7c9.56,5,15.82-3,17.55-5.72,4.14-6.38,5.25-15.5.29-18.92-2.77-1.91-5.37-2.56-7.94-2-4.47,1-7.6,5.51-8.27,6.55l0,0h0A44.77,44.77,0,0,0,640.53,556.77Zm-1-20.83h0Z" transform="translate(-226.15 -97.73)"/><path class="cls-4" d="M565.7,612.72l5-18.86s22.45-9.34,53.88,1.62l4,19Z" transform="translate(-226.15 -97.73)"/><path class="cls-3" d="M513.16,616.94s33.4-13.74,85.13-10,83,18.86,83,18.86,18.59,87.46,18.95,112.25-29.81,45.62-29.81,45.62l12.75,141.7H443.39S447.16,704.49,513.16,616.94Z" transform="translate(-226.15 -97.73)"/><path class="cls-2" d="M456.88,784.45a2.77,2.77,0,0,1-.44,0,2.69,2.69,0,0,1-2.23-3.09c12.53-76.78,31.64-132.64,56.79-166a2.69,2.69,0,0,1,4.3,3.24c-24.62,32.66-43.39,87.72-55.78,163.63A2.69,2.69,0,0,1,456.88,784.45Z" transform="translate(-226.15 -97.73)"/><path class="cls-2" d="M676.69,912.46H451.29a2.69,2.69,0,0,1,0-5.39H676.69A2.69,2.69,0,0,1,676.69,912.46Z" transform="translate(-226.15 -97.73)"/><path class="cls-1" d="M554.07,505.33L551.62,520A4.31,4.31,0,0,0,555,524.9l11.57,2.24a4.31,4.31,0,0,0,5.09-3.69l1.93-15.28a4.31,4.31,0,0,0-3.66-4.8l-11.05-1.59A4.31,4.31,0,0,0,554.07,505.33Z" transform="translate(-226.15 -97.73)"/><path class="cls-2" d="M567.43,529.91a7,7,0,0,1-1.32-.13l-11.57-2.24a7,7,0,0,1-5.57-8l2.45-14.63h0a7,7,0,0,1,7.9-5.77l11.05,1.59a7,7,0,0,1,5.95,7.81l-1.93,15.28A7,7,0,0,1,567.43,529.91Zm-9.11-25.48a1.62,1.62,0,0,0-1.59,1.35h0l-2.45,14.63a1.6,1.6,0,0,0,1.28,1.85l11.57,2.24a1.61,1.61,0,0,0,1.91-1.38L571,507.83a1.62,1.62,0,0,0-1.37-1.8l-11.05-1.59Zm-4.25.9h0Z" transform="translate(-226.15 -97.73)"/><path class="cls-2" d="M511,701.55c-70.43,33.28-90.91-43.37-71.52-51.71s48.74-25.59,34-57.93-24.17-85.67,14.88-107.08,72.38,21.9,72.39,21.92c0.13,0.36.3,6.23-3.15,14.55-15.85,2.54-24,15.93-14.51,47.37C553.19,602.25,581.44,668.27,511,701.55Z" transform="translate(-226.15 -97.73)"/><path class="cls-1" d="M898.85,856.29c-5.73,6-34.23,2.56-34.23,2.56s-11.62,3.44-16.75,2-12-9.29-12-9.29-141.82,18.5-148.73-12L651,768.85l65-34.41,24.78,61.24L841,818.36l4.67-1.17a59.14,59.14,0,0,1,13.91-2,38.53,38.53,0,0,1,35.19,21.22C898.88,844.36,902,853,898.85,856.29Z" transform="translate(-226.15 -97.73)"/><path class="cls-2" d="M850.92,863.91a14.65,14.65,0,0,1-3.76-.42c-4.71-1.28-10.13-6.65-12.37-9-7,.86-38.66,4.57-70.66,5.28-49.95,1.11-76-5.16-79.56-19.19l-36-70.48a2.69,2.69,0,0,1,1.14-3.61l65-34.41a2.69,2.69,0,0,1,3.76,1.37l24.25,59.93L841,815.59l4-1a61.91,61.91,0,0,1,14.49-2.13,41.29,41.29,0,0,1,37.66,22.69c6.07,11.92,7.21,19.23,3.59,23h0c-6.13,6.39-29.9,4.13-36,3.43C862.77,862.17,856.17,863.91,850.92,863.91Zm-15.07-15a2.69,2.69,0,0,1,2,.92c2.46,2.82,7.55,7.6,10.7,8.46s11.07-.79,15.28-2a2.64,2.64,0,0,1,1.08-.09c11.29,1.35,28.66,1.7,32-1.75,0.28-.29,2.45-3.18-4.5-16.84a35.91,35.91,0,0,0-32.72-19.75,56.66,56.66,0,0,0-13.28,2L841.69,821a2.71,2.71,0,0,1-1.25,0L740.22,798.31a2.69,2.69,0,0,1-1.9-1.62l-23.66-58.47L654.6,770l34.91,68.4a2.7,2.7,0,0,1,.23.63c4.64,20.47,91.86,17,145.75,9.92Zm63,7.38h0Z" transform="translate(-226.15 -97.73)"/><path class="cls-3" d="M683.6,628.33L728.43,737.6C716,778,691.79,797,646.82,778.41c0,0-27.23-74.62-25.88-117.83S666.7,609.78,683.6,628.33Z" transform="translate(-226.15 -97.73)"/><path class="cls-2" d="M640.62,762.71a2.7,2.7,0,0,1-2.57-1.87c-7.8-24.44-20.75-70-19.81-100.33,0.57-18.48,9.16-33.12,23.56-40.15a2.69,2.69,0,1,1,2.36,4.84c-7.37,3.6-19.84,13-20.54,35.47-0.92,29.54,11.86,74.41,19.56,98.52A2.69,2.69,0,0,1,640.62,762.71Z" transform="translate(-226.15 -97.73)"/><path class="cls-2" d="M676.26,774.91a57.65,57.65,0,0,1-26.62-7,2.69,2.69,0,0,1,2.72-4.65h0c0.18,0.11,18.51,10.56,36.62,4.11C701.19,763,710.68,752,717.2,734.66a2.69,2.69,0,1,1,5,1.89c-7.11,18.94-17.71,31-31.52,35.93A43.08,43.08,0,0,1,676.26,774.91Z" transform="translate(-226.15 -97.73)"/><path class="cls-3" d="M810.85,1338.35h0a11.67,11.67,0,0,0,11.53-13.42l-44-289.76H582.92l-44,289.76a11.67,11.67,0,0,0,11.53,13.42h0a11.67,11.67,0,0,0,11.41-9.22l56.31-262.62H743.14l56.31,262.62A11.67,11.67,0,0,0,810.85,1338.35Z" transform="translate(-226.15 -97.73)"/><path class="cls-2" d="M773.72,1211.88a2.7,2.7,0,0,1-2.63-2.13l-8.82-41.15a2.69,2.69,0,0,1,5.27-1.13l8.82,41.15A2.7,2.7,0,0,1,773.72,1211.88Z" transform="translate(-226.15 -97.73)"/><path class="cls-3" d="M677.95,1338.35h0a11.67,11.67,0,0,0,11.53-13.42l-44-289.76H450l-44,289.76a11.67,11.67,0,0,0,11.53,13.42h0a11.67,11.67,0,0,0,11.41-9.22l56.31-262.62H610.24l56.31,262.62A11.67,11.67,0,0,0,677.95,1338.35Z" transform="translate(-226.15 -97.73)"/><path class="cls-2" d="M649.69,1065.42a2.69,2.69,0,0,1-2.66-2.29l-4.18-27.55a2.69,2.69,0,0,1,5.33-.81l4.18,27.55a2.69,2.69,0,0,1-2.26,3.07A2.63,2.63,0,0,1,649.69,1065.42Z" transform="translate(-226.15 -97.73)"/><path class="cls-2" d="M612.72,1080.83a2.7,2.7,0,0,1-2.63-2.13l-2-9.49H583a2.69,2.69,0,0,1,0-5.39h27.22a2.69,2.69,0,0,1,2.63,2.13l2.49,11.62A2.7,2.7,0,0,1,612.72,1080.83Z" transform="translate(-226.15 -97.73)"/><path class="cls-1" d="M445.83,761.85H621.71a25.19,25.19,0,0,1,24.81,20.87l36.6,210.69A14.06,14.06,0,0,0,697,1005.07h71.9a20.43,20.43,0,0,1,20.43,20.43h0a20.43,20.43,0,0,1-20.43,20.43H451.06a25.17,25.17,0,0,1-24.66-20C418,985,402.51,887.13,421,782.56A25.15,25.15,0,0,1,445.83,761.85Z" transform="translate(-226.15 -97.73)"/><path class="cls-2" d="M768.88,1048.62H451.06a28,28,0,0,1-27.29-22.2c-7.88-38.11-24.19-138.2-5.38-244.34a27.8,27.8,0,0,1,27.44-22.93H621.71a27.83,27.83,0,0,1,27.47,23.11L685.79,993a11.34,11.34,0,0,0,11.2,9.42h71.9A23.13,23.13,0,0,1,768.88,1048.62Zm-323-284.08A22.42,22.42,0,0,0,423.7,783C405,888.25,421.22,987.53,429,1025.33a22.56,22.56,0,0,0,22,17.9H768.88a17.74,17.74,0,1,0,0-35.47H697a16.72,16.72,0,0,1-16.5-13.88l-36.6-210.69a22.45,22.45,0,0,0-22.16-18.64H445.83Z" transform="translate(-226.15 -97.73)"/><polygon class="cls-1" points="1060.88 1088.37 1073.4 1140.58 1102.05 1138.5 1097.89 1081.19 1060.88 1088.37"/><path class="cls-2" d="M1299.54,1241a2.71,2.71,0,0,1-2.63-2.07l-12.51-52.21a2.71,2.71,0,0,1,2.12-3.29l37-7.18a2.7,2.7,0,0,1,3.21,2.46l4.16,57.31a2.71,2.71,0,0,1-2.5,2.89l-28.66,2.08h-0.2Zm-9.22-52.8,11.32,47.23,23.67-1.72-3.75-51.57Z" transform="translate(-226.15 -97.73)"/><path class="cls-4" d="M1348.31,1338.35H1219.68a73.71,73.71,0,0,1-1.13-19.33c0.73-8.6,3.55-17.77,11.49-22.14a84,84,0,0,0,15.33-11.28c14.27-12.91,29.88-33.4,41.6-59.54h50.52a733.68,733.68,0,0,1,10.4,93C1348.16,1325.44,1348.31,1331.91,1348.31,1338.35Z" transform="translate(-226.15 -97.73)"/><path class="cls-1" d="M1348.31,1338.35H1219.68a73.71,73.71,0,0,1-1.13-19.33H1347.9C1348.16,1325.44,1348.31,1331.91,1348.31,1338.35Z" transform="translate(-226.15 -97.73)"/><path class="cls-2" d="M1348.31,1341.06H1219.68a2.7,2.7,0,0,1-2.64-2.14,75.84,75.84,0,0,1-1.18-20.13,2.7,2.7,0,0,1,2.7-2.47H1347.9a2.71,2.71,0,0,1,2.7,2.59c0.27,6.67.41,13.21,0.41,19.44A2.7,2.7,0,0,1,1348.31,1341.06Zm-126.37-5.41H1345.6c0-4.51-.13-9.17-0.3-13.92H1221.09A73.19,73.19,0,0,0,1221.95,1335.65Z" transform="translate(-226.15 -97.73)"/><path class="cls-1" d="M1245.78,1338.35h-26.09a73.71,73.71,0,0,1-1.13-19.33c0.73-8.6,3.55-17.77,11.49-22.14a84,84,0,0,0,15.33-11.28C1243,1293.49,1240.13,1310.53,1245.78,1338.35Z" transform="translate(-226.15 -97.73)"/><path class="cls-2" d="M1245.78,1341.06h-26.09a2.7,2.7,0,0,1-2.64-2.14,75.84,75.84,0,0,1-1.18-20.13c1-11.79,5.45-20.18,12.88-24.28a80.91,80.91,0,0,0,14.82-10.92,2.71,2.71,0,0,1,4.41,2.78c-2.21,7.45-5.1,24,.46,51.44A2.7,2.7,0,0,1,1245.78,1341.06Zm-23.83-5.41h20.55c-3.62-19.56-3-33.68-1.5-42.83a74.78,74.78,0,0,1-9.64,6.43c-5.85,3.23-9.25,10-10.1,20A71.15,71.15,0,0,0,1221.95,1335.65Z" transform="translate(-226.15 -97.73)"/><ellipse class="cls-1" cx="1068.65" cy="1176.17" rx="12.65" ry="19.11"/><path class="cls-2" d="M1294.8,1295.72c-8.61,0-15.36-9.58-15.36-21.82s6.75-21.81,15.36-21.81,15.36,9.58,15.36,21.81S1303.41,1295.72,1294.8,1295.72Zm0-38.22c-5.39,0-9.95,7.51-9.95,16.4s4.56,16.41,9.95,16.41,9.95-7.51,9.95-16.41S1300.19,1257.5,1294.8,1257.5Z" transform="translate(-226.15 -97.73)"/><path class="cls-2" d="M1322.68,1316.53a2.69,2.69,0,0,1-2.69-2.59c-1.91-51-8.71-83-8.78-83.35a2.69,2.69,0,0,1,5.27-1.14c0.07,0.32,7,32.72,8.89,84.29a2.69,2.69,0,0,1-2.59,2.79h-0.1Z" transform="translate(-226.15 -97.73)"/><path class="cls-2" d="M1338.49,1316.53a2.69,2.69,0,0,1-2.69-2.59c-1.91-51-8.71-83-8.78-83.35a2.69,2.69,0,0,1,5.27-1.14c0.07,0.32,7,32.72,8.89,84.29a2.69,2.69,0,0,1-2.59,2.79h-0.1Z" transform="translate(-226.15 -97.73)"/><path class="cls-4" d="M1180.61,657.75s17.83,256.72,28.6,300.06,71.48,233.44,71.48,233.44l78.55-13.73-49.93-237.85s13.41-157,11.18-204.49-9.38-166.06-77.47-158.3S1180.61,657.75,1180.61,657.75Z" transform="translate(-226.15 -97.73)"/><path class="cls-1" d="M1246.05,687.25l40.51-4.62a6.15,6.15,0,0,1,6.81,5.41l4.15,36.42a6.15,6.15,0,0,1-3.35,6.19l-19.39,9.74a6.15,6.15,0,0,1-4.25.47l-21.14-5.27a6.15,6.15,0,0,1-4.62-5.27l-4.13-36.27A6.15,6.15,0,0,1,1246.05,687.25Z" transform="translate(-226.15 -97.73)"/><path class="cls-2" d="M1213,718.89a2.68,2.68,0,0,1-1-.19l-8.18-3.25a13.38,13.38,0,0,1-8.36-10.93l-4.32-37.89a2.69,2.69,0,0,1,5.35-.61l4.32,37.89a8,8,0,0,0,5,6.54l8.18,3.25A2.69,2.69,0,0,1,1213,718.89Z" transform="translate(-226.15 -97.73)"/><path class="cls-2" d="M1297.8,1172.18a2.69,2.69,0,0,1-2.59-1.95l-64.79-224.3a2.64,2.64,0,0,1-.1-0.51l-24.55-280.53a2.69,2.69,0,0,1,5.37-.47l24.53,280.27,64.72,224A2.7,2.7,0,0,1,1297.8,1172.18Z" transform="translate(-226.15 -97.73)"/><path class="cls-2" d="M1285.21,1174.68a2.69,2.69,0,0,1-.52-5.34l62.61-12.44a2.69,2.69,0,1,1,1.05,5.29l-62.61,12.44A2.72,2.72,0,0,1,1285.21,1174.68Z" transform="translate(-226.15 -97.73)"/><polygon class="cls-1" points="904.59 1086.95 913.29 1139.93 942.02 1139.93 942.02 1082.47 904.59 1086.95"/><path class="cls-2" d="M1168.17,1240.37h-28.73a2.7,2.7,0,0,1-2.67-2.27l-8.7-53a2.7,2.7,0,0,1,2.35-3.12l37.43-4.48a2.7,2.7,0,0,1,3,2.69v57.46A2.7,2.7,0,0,1,1168.17,1240.37Zm-26.43-5.41h23.73v-51.71l-31.6,3.78Z" transform="translate(-226.15 -97.73)"/><path class="cls-4" d="M1190.31,1338.35H1061.68a73.71,73.71,0,0,1-1.13-19.33c0.73-8.6,3.55-17.77,11.49-22.14a84,84,0,0,0,15.33-11.28c14.27-12.91,29.88-33.4,41.6-59.54h50.52a733.68,733.68,0,0,1,10.4,93C1190.16,1325.44,1190.31,1331.91,1190.31,1338.35Z" transform="translate(-226.15 -97.73)"/><path class="cls-1" d="M1190.31,1338.35H1061.68a73.71,73.71,0,0,1-1.13-19.33H1189.9C1190.16,1325.44,1190.31,1331.91,1190.31,1338.35Z" transform="translate(-226.15 -97.73)"/><path class="cls-2" d="M1190.31,1341.06H1061.68a2.7,2.7,0,0,1-2.64-2.14,75.88,75.88,0,0,1-1.18-20.13,2.7,2.7,0,0,1,2.7-2.47H1189.9a2.71,2.71,0,0,1,2.7,2.59c0.27,6.67.41,13.21,0.41,19.44A2.7,2.7,0,0,1,1190.31,1341.06Zm-126.37-5.41h123.65c0-4.51-.13-9.17-0.3-13.92H1063.09A73.28,73.28,0,0,0,1063.94,1335.65Z" transform="translate(-226.15 -97.73)"/><path class="cls-1" d="M1087.77,1338.35h-26.09a73.71,73.71,0,0,1-1.13-19.33c0.73-8.6,3.55-17.77,11.49-22.14a84,84,0,0,0,15.33-11.28C1085,1293.49,1082.13,1310.53,1087.77,1338.35Z" transform="translate(-226.15 -97.73)"/><path class="cls-2" d="M1087.77,1341.06h-26.1a2.7,2.7,0,0,1-2.64-2.14,75.88,75.88,0,0,1-1.18-20.13c1-11.79,5.45-20.18,12.88-24.28a80.92,80.92,0,0,0,14.82-10.92,2.71,2.71,0,0,1,4.41,2.78c-2.21,7.46-5.09,24.05.46,51.44A2.7,2.7,0,0,1,1087.77,1341.06Zm-23.83-5.41h20.55c-3.62-19.56-3-33.68-1.5-42.83a74.75,74.75,0,0,1-9.64,6.43c-5.85,3.23-9.25,10-10.1,20A71.21,71.21,0,0,0,1063.95,1335.65Z" transform="translate(-226.15 -97.73)"/><ellipse class="cls-1" cx="910.65" cy="1176.17" rx="12.65" ry="19.11"/><path class="cls-2" d="M1136.8,1295.72c-8.61,0-15.36-9.58-15.36-21.82s6.75-21.81,15.36-21.81,15.36,9.58,15.36,21.81S1145.41,1295.72,1136.8,1295.72Zm0-38.22c-5.39,0-9.95,7.51-9.95,16.4s4.56,16.41,9.95,16.41,9.95-7.51,9.95-16.41S1142.19,1257.5,1136.8,1257.5Z" transform="translate(-226.15 -97.73)"/><path class="cls-2" d="M1164.67,1316.53a2.69,2.69,0,0,1-2.69-2.59c-1.91-51.1-8.71-83-8.77-83.35a2.69,2.69,0,1,1,5.27-1.14c0.07,0.32,7,32.72,8.89,84.29a2.69,2.69,0,0,1-2.59,2.79h-0.1Z" transform="translate(-226.15 -97.73)"/><path class="cls-2" d="M1180.49,1316.53a2.69,2.69,0,0,1-2.69-2.59c-1.91-51.1-8.71-83-8.77-83.35a2.69,2.69,0,1,1,5.27-1.14c0.07,0.32,7,32.72,8.89,84.29a2.69,2.69,0,0,1-2.59,2.79h-0.1Z" transform="translate(-226.15 -97.73)"/><path class="cls-4" d="M1083.29,649.34s-11.37,257.08-5.57,301.37,44.58,240,44.58,240l79.6-4.74-22.67-242s31.1-154.46,34.27-201.91,9.49-166.06-59-166.06S1083.29,649.34,1083.29,649.34Z" transform="translate(-226.15 -97.73)"/><path class="cls-2" d="M1200.21,835.64a2.76,2.76,0,0,1-.47,0,2.69,2.69,0,0,1-2.19-3.12c7.72-43.9,12.18-74.36,13.26-90.54,2.11-31.69,7.72-115.86-23.52-149.26-8.64-9.24-19.69-13.92-32.83-13.92a2.69,2.69,0,1,1,0-5.39c14.69,0,27.06,5.26,36.77,15.63,32.84,35.11,27.12,121,25,153.3-1.09,16.37-5.58,47-13.33,91.11A2.7,2.7,0,0,1,1200.21,835.64Z" transform="translate(-226.15 -97.73)"/><path class="cls-1" d="M1145,686.07h40.77a6.15,6.15,0,0,1,6.15,6.15v36.65a6.15,6.15,0,0,1-4,5.77l-20.36,7.49a6.15,6.15,0,0,1-4.28,0l-20.4-7.63a6.15,6.15,0,0,1-4-5.76v-36.5A6.15,6.15,0,0,1,1145,686.07Z" transform="translate(-226.15 -97.73)"/><path class="cls-2" d="M1108.82,713.78a2.69,2.69,0,0,1-1.27-.32l-7.75-4.16a13.38,13.38,0,0,1-7.07-11.81V659.36a2.69,2.69,0,0,1,5.39,0v38.14a8,8,0,0,0,4.23,7.06l7.75,4.16A2.69,2.69,0,0,1,1108.82,713.78Z" transform="translate(-226.15 -97.73)"/><path class="cls-2" d="M1141.76,1173.75a2.69,2.69,0,0,1-2.65-2.25l-39-230.19a2.72,2.72,0,0,1,0-.52l7.38-281.51a2.66,2.66,0,0,1,2.76-2.62,2.69,2.69,0,0,1,2.62,2.76l-7.37,281.25,38.92,229.93a2.69,2.69,0,0,1-2.21,3.11A2.73,2.73,0,0,1,1141.76,1173.75Z" transform="translate(-226.15 -97.73)"/><path class="cls-2" d="M1129,1174.81a2.69,2.69,0,0,1-.22-5.38l63.61-5.27a2.69,2.69,0,1,1,.45,5.37l-63.61,5.27H1129Z" transform="translate(-226.15 -97.73)"/><path class="cls-1" d="M1247.51,565.78l-12.39,7.91s-21.35-2.9-27.15-1.58-26.62,14-26.62,20.56,21.35-4,21.35-4S1185,599,1182.93,600s-10.81,0-15.82,1.58,9.75,31.63,16.08,35.85,34.27-.79,41.38-2.64,34.53-34.53,35.58-35.06,18.19-12.65,18.19-12.65Z" transform="translate(-226.15 -97.73)"/><path class="cls-2" d="M1193,641.78c-4.88,0-9-.56-11.28-2.06-6.23-4.15-19.33-29.19-18.22-37a4.17,4.17,0,0,1,2.83-3.66c3.11-1,7.1-1.06,10.62-1.13a28.15,28.15,0,0,0,4.86-.32l0.63-.34a5.11,5.11,0,0,1-1.62-.63,4.51,4.51,0,0,1-2.14-4c0-9,23.27-21.95,28.72-23.19s22.48,0.8,27.13,1.41l11.56-7.38a2.69,2.69,0,0,1,3,.06l30.84,21.35a2.69,2.69,0,0,1,0,4.41c-6,4.24-15.91,11.23-18.16,12.64-0.56.55-2.45,2.67-4.45,4.91-16,17.89-26.92,29.24-32,30.57C1222.08,638.27,1205.22,641.78,1193,641.78ZM1168.75,604c-0.1,5.25,10.57,27.69,15.94,31.26,4.73,3.16,29.87-.58,39.21-3,4.57-1.19,23.24-22.08,29.37-28.95,4.78-5.35,5-5.57,5.68-5.91,0.85-.5,8.51-5.86,14.69-10.22L1247.45,569,1236.57,576a2.7,2.7,0,0,1-1.81.4c-8.39-1.14-22.28-2.51-26.19-1.62-5.74,1.3-23.19,12.73-24.45,17.43,2.52,0.24,10.22-2.33,17.39-5.87a2.69,2.69,0,0,1,2.55,4.74c-1.82,1.06-17.8,10.35-19.92,11.42-1.43.71-3.53,0.79-7.11,0.86A44.81,44.81,0,0,0,1168.75,604Zm92.86-1.92-0.25.14Z" transform="translate(-226.15 -97.73)"/><path class="cls-3" d="M1271.11,328.61s25.16,8.11,43.09,46.6,45.86,119.67,46.92,157.1-67.72,67.48-90,75.91c0,0-31.9-11.6-30.84-45.86l55-49.55s-38.48-71.7-52.19-114.4S1271.11,328.61,1271.11,328.61Z" transform="translate(-226.15 -97.73)"/><path class="cls-2" d="M1275.71,600.9a2.68,2.68,0,0,1-1.43-.41c-28-17.58-25.61-39.89-25.49-40.83a2.69,2.69,0,0,1,5.35.65c-0.09.82-1.95,20,23,35.62A2.69,2.69,0,0,1,1275.71,600.9Z" transform="translate(-226.15 -97.73)"/><path class="cls-1" d="M1176.64,280.2s-15.2,21.86-37.63,21.86-39.15-92.17.76-100S1205.15,239.72,1176.64,280.2Z" transform="translate(-226.15 -97.73)"/><path class="cls-2" d="M1139,304.75c-13.58,0-23.29-24.73-25.54-48-2.4-24.8,3.12-52.88,25.79-57.31,18.25-3.56,34.91,3.23,44.59,18.16,9.31,14.36,12.88,38.75-5,64.14C1178.13,282.77,1162.52,304.75,1139,304.75Zm9.58-100.84a43.35,43.35,0,0,0-8.31.82c-19.13,3.73-23.63,29.05-21.46,51.5,2.22,23,11.65,43.13,20.18,43.13,20.72,0,35.28-20.5,35.42-20.7h0c16.34-23.2,13.23-45.23,4.88-58.11A35.78,35.78,0,0,0,1148.59,203.91Z" transform="translate(-226.15 -97.73)"/><polygon class="cls-1" points="972.44 233.02 965.31 187.41 934.78 195.74 935.66 233.02 972.44 233.02"/><path class="cls-2" d="M1198.59,333.45h-36.77a2.69,2.69,0,0,1-2.69-2.63l-0.89-37.28a2.69,2.69,0,0,1,2-2.66l30.54-8.33a2.69,2.69,0,0,1,3.37,2.18l7.13,45.61A2.69,2.69,0,0,1,1198.59,333.45Zm-34.14-5.39h31l-6.18-39.53-25.6,7Z" transform="translate(-226.15 -97.73)"/><path class="cls-2" d="M1129.12,255.49s4.18-18.43,17.1-13.87,12.16,25.28,2.85,31.17l11.84,20.68h31.84s25.69-34.37,28.73-56-17.86-23.38-17.86-23.38-3.8-18.62-19-21.86-57,5.51-57,5.51-8.12-12.92-15-12.78-6.7,14.4-6.7,14.4-9-11.69-14.54-8.12,3.85,51.6,31.93,42.76C1123.33,234,1119.53,253.64,1129.12,255.49Z" transform="translate(-226.15 -97.73)"/><path class="cls-1" d="M1220.13,325.58s-7.63-19.7-37.18-19.7-39.89,24.87-39.89,24.87h77.08v-5.17Z" transform="translate(-226.15 -97.73)"/><path class="cls-2" d="M1220.13,333.45h-77.08a2.69,2.69,0,0,1-2.49-3.73c0.11-.27,11.39-26.53,42.38-26.53s39.36,20.55,39.7,21.42a2.7,2.7,0,0,1,.18,1v5.17A2.69,2.69,0,0,1,1220.13,333.45Zm-72.6-5.39h69.91v-1.92c-1.29-2.79-9.33-17.56-34.49-17.56C1162.15,308.57,1151.57,321.48,1147.53,328.06Z" transform="translate(-226.15 -97.73)"/><path class="cls-3" d="M1071.47,661.55a275.45,275.45,0,0,0,37.77,10.14V639.12a9,9,0,0,1,17.94,0v35.54c114.09,15.65,195.8-21.28,195.8-21.28-20.38-215.09-51.87-324.77-51.87-324.77-104.87-17.89-184.12,5.65-184.12,5.65C1071.47,398.93,1071.47,661.55,1071.47,661.55Z" transform="translate(-226.15 -97.73)"/><path class="cls-2" d="M1315,581.57a2.69,2.69,0,0,1-2.67-2.38c-15.62-131.5-34-211.45-41.17-239.71a2.69,2.69,0,0,1,5.22-1.33c7.2,28.37,25.63,108.58,41.29,240.4a2.69,2.69,0,0,1-2.36,3Z" transform="translate(-226.15 -97.73)"/><path class="cls-2" d="M1185.08,666.82a454.29,454.29,0,0,1-48-2.54,2.69,2.69,0,0,1,.57-5.36c41.94,4.47,106.2,5.16,174.11-16.89a2.69,2.69,0,1,1,1.66,5.13C1267,662.23,1222.3,666.82,1185.08,666.82Z" transform="translate(-226.15 -97.73)"/><path class="cls-2" d="M1096.5,657.91a2.71,2.71,0,0,1-.56-0.06c-10-2.11-15.55-3.75-15.78-3.82a2.69,2.69,0,0,1,1.54-5.16c0.05,0,5.6,1.65,15.36,3.71A2.69,2.69,0,0,1,1096.5,657.91Z" transform="translate(-226.15 -97.73)"/><path class="cls-1" d="M938.06,465.09l-25.83-14.5s-5-45.6-8.43-52.19c-2.64-5.07-26.78-21.61-36.35-27.93a5.57,5.57,0,0,0-7.75,1.63h0a5.57,5.57,0,0,0,.43,6.62l16.52,18.1-20.31-9.16a7.73,7.73,0,0,0-10,3.39l-12.21,22.73a7.73,7.73,0,0,0,2.57,10.12l27.82,18.26s-0.53,28.73,6.33,32.16,30,6.85,30,6.85l27.41,24.51Z" transform="translate(-226.15 -97.73)"/><path class="cls-2" d="M928.3,508.38a2.69,2.69,0,0,1-1.8-.69l-26.81-24c-4.25-.65-23.57-3.74-30.06-7-7.29-3.65-7.9-24.66-7.83-33.12l-26.59-17.45a10.37,10.37,0,0,1-3.46-13.65L844,389.78a10.45,10.45,0,0,1,13.47-4.57l8.42,3.8-7.73-8.47a8.26,8.26,0,0,1,10.79-12.31c7.93,5.24,34.07,22.8,37.26,28.93,3.32,6.39,7.6,43.13,8.57,51.76l24.63,13.82a2.69,2.69,0,0,1,1.3,3l-9.75,40.59A2.69,2.69,0,0,1,928.3,508.38Zm-75.14-118.7a5.05,5.05,0,0,0-4.45,2.65L836.5,415.06a5,5,0,0,0,1.67,6.59L866,439.91a2.7,2.7,0,0,1,1.22,2.3c-0.24,13.06,1.65,28.11,4.84,29.7,5.31,2.65,22.9,5.66,29.24,6.6a2.7,2.7,0,0,1,1.4.66l24.05,21.51L935,466.45l-24.05-13.5a2.69,2.69,0,0,1-1.36-2.06c-1.92-17.44-5.82-46.77-8.15-51.24-1.81-3.49-19.62-16.47-35.45-26.92a2.87,2.87,0,0,0-3.78,4.25l16.45,18a2.69,2.69,0,0,1-3.1,4.27l-20.31-9.16A5,5,0,0,0,853.17,389.68Z" transform="translate(-226.15 -97.73)"/><path class="cls-3" d="M1125.47,431.27c-15.58,36-44.85,93-71.65,124.61-11.86,14-23.24,23-32.73,23-9.16,0-22.88-6.08-37.64-14.66-35-20.32-75.88-54.58-75.88-54.58-2.19-29.27,4.66-49.48,27.77-53.42l66.07,29.17S1058.28,344,1087,334.27C1131.79,327.06,1148,379.25,1125.47,431.27Z" transform="translate(-226.15 -97.73)"/><path class="cls-2" d="M1079.89,521.78a2.69,2.69,0,0,1-2.29-4.11A715.89,715.89,0,0,0,1123,430.2c11.38-26.33,13-54.28,4.18-72.94-4.76-10.07-12.27-16.84-21.73-19.57a2.69,2.69,0,1,1,1.49-5.18c11,3.17,19.68,10.93,25.11,22.44,9.59,20.32,8.06,49.24-4.1,77.38a721.46,721.46,0,0,1-45.75,88.16A2.69,2.69,0,0,1,1079.89,521.78Z" transform="translate(-226.15 -97.73)"/><path class="cls-1" d="M1053.81,555.88c-11.86,14-23.24,23-32.73,23-9.16,0-22.88-6.08-37.64-14.66,2.29-16.91,17.69-30,36.33-30C1035.23,534.24,1048.43,543.2,1053.81,555.88Z" transform="translate(-226.15 -97.73)"/><path class="cls-2" d="M920,512.69a2.69,2.69,0,0,1-2.67-2.37c-0.19-1.57-4.36-38.61,21.09-47.84a2.69,2.69,0,0,1,1.84,5.06c-21.42,7.77-17.62,41.79-17.57,42.13a2.7,2.7,0,0,1-2.35,3Z" transform="translate(-226.15 -97.73)"/><path class="cls-4" d="M300.62,968.32a37.24,37.24,0,0,0-37.24,37.24,37.24,37.24,0,0,0-37.24-37.24,37.24,37.24,0,0,0,37.24-37.24A37.24,37.24,0,0,0,300.62,968.32Z" transform="translate(-226.15 -97.73)"/><path class="cls-3" d="M1106,124a26.29,26.29,0,0,0-26.28,26.28A26.29,26.29,0,0,0,1053.4,124a26.29,26.29,0,0,0,26.28-26.28A26.29,26.29,0,0,0,1106,124Z" transform="translate(-226.15 -97.73)"/><circle class="cls-3" cx="74.46" cy="684.74" r="10.27"/></svg>
